<svg id="visual" viewBox="0 0 900 600" width="900" height="600" xmlns="http://www.w3.org/2000/svg" xmlns:xlink="http://www.w3.org/1999/xlink" version="1.1"><rect x="0" y="0" width="900" height="600" fill="#001220"></rect><path d="M0 425L21.5 427.2C43 429.3 86 433.7 128.8 441.5C171.7 449.3 214.3 460.7 257.2 454.7C300 448.7 343 425.3 385.8 422.7C428.7 420 471.3 438 514.2 448.5C557 459 600 462 642.8 462.3C685.7 462.7 728.3 460.3 771.2 456C814 451.7 857 445.3 878.5 442.2L900 439L900 601L878.5 601C857 601 814 601 771.2 601C728.3 601 685.7 601 642.8 601C600 601 557 601 514.2 601C471.3 601 428.7 601 385.8 601C343 601 300 601 257.2 601C214.3 601 171.7 601 128.8 601C86 601 43 601 21.5 601L0 601Z" fill="#fa7268"></path><path d="M0 451L21.5 451.3C43 451.7 86 452.3 128.8 458.5C171.7 464.7 214.3 476.3 257.2 480.8C300 485.3 343 482.7 385.8 482.2C428.7 481.7 471.3 483.3 514.2 478.7C557 474 600 463 642.8 462.8C685.7 462.7 728.3 473.3 771.2 479C814 484.7 857 485.3 878.5 485.7L900 486L900 601L878.5 601C857 601 814 601 771.2 601C728.3 601 685.7 601 642.8 601C600 601 557 601 514.2 601C471.3 601 428.7 601 385.8 601C343 601 300 601 257.2 601C214.3 601 171.7 601 128.8 601C86 601 43 601 21.5 601L0 601Z" fill="#f16367"></path><path d="M0 494L21.5 497.8C43 501.7 86 509.3 128.8 508C171.7 506.7 214.3 496.3 257.2 492.7C300 489 343 492 385.8 490.2C428.7 488.3 471.3 481.7 514.2 478.2C557 474.7 600 474.3 642.8 477.3C685.7 480.3 728.3 486.7 771.2 485.5C814 484.3 857 475.7 878.5 471.3L900 467L900 601L878.5 601C857 601 814 601 771.2 601C728.3 601 685.7 601 642.8 601C600 601 557 601 514.2 601C471.3 601 428.7 601 385.8 601C343 601 300 601 257.2 601C214.3 601 171.7 601 128.8 601C86 601 43 601 21.5 601L0 601Z" fill="#e85467"></path><path d="M0 533L21.5 528.8C43 524.7 86 516.3 128.8 510.8C171.7 505.3 214.3 502.7 257.2 504C300 505.3 343 510.7 385.8 508.8C428.7 507 471.3 498 514.2 501.7C557 505.3 600 521.7 642.8 528.3C685.7 535 728.3 532 771.2 528C814 524 857 519 878.5 516.5L900 514L900 601L878.5 601C857 601 814 601 771.2 601C728.3 601 685.7 601 642.8 601C600 601 557 601 514.2 601C471.3 601 428.7 601 385.8 601C343 601 300 601 257.2 601C214.3 601 171.7 601 128.8 601C86 601 43 601 21.5 601L0 601Z" fill="#de4467"></path><path d="M0 538L21.5 541.3C43 544.7 86 551.3 128.8 554.8C171.7 558.3 214.3 558.7 257.2 555.5C300 552.3 343 545.7 385.8 541C428.7 536.3 471.3 533.7 514.2 533.7C557 533.7 600 536.3 642.8 537.8C685.7 539.3 728.3 539.7 771.2 538C814 536.3 857 532.7 878.5 530.8L900 529L900 601L878.5 601C857 601 814 601 771.2 601C728.3 601 685.7 601 642.8 601C600 601 557 601 514.2 601C471.3 601 428.7 601 385.8 601C343 601 300 601 257.2 601C214.3 601 171.7 601 128.8 601C86 601 43 601 21.5 601L0 601Z" fill="#d23467"></path><path d="M0 559L21.5 560.3C43 561.7 86 564.3 128.8 566.2C171.7 568 214.3 569 257.2 568.3C300 567.7 343 565.3 385.8 563.3C428.7 561.3 471.3 559.7 514.2 557.8C557 556 600 554 642.8 553.3C685.7 552.7 728.3 553.3 771.2 555.7C814 558 857 562 878.5 564L900 566L900 601L878.5 601C857 601 814 601 771.2 601C728.3 601 685.7 601 642.8 601C600 601 557 601 514.2 601C471.3 601 428.7 601 385.8 601C343 601 300 601 257.2 601C214.3 601 171.7 601 128.8 601C86 601 43 601 21.5 601L0 601Z" fill="#c62368"></path></svg>